<?xml version="1.0" encoding="UTF-8"?><svg id="Layer_1" xmlns="http://www.w3.org/2000/svg" viewBox="0 0 512 512"><defs><style>.cls-1{fill:#3b006a;}.cls-2{fill:#fff;fill-rule:evenodd;}</style></defs><rect class="cls-1" x="56" y="56" width="400" height="400" rx="10" ry="10"/><path class="cls-2" d="M291.88,230.83c-.03-2.93,2.32-5.33,5.25-5.36,.04,0,.09,0,.13,0h3.79v-7.88c-.46-3.19,1.75-6.14,4.94-6.6,.28-.04,.57-.06,.85-.06,2.59,0,4.87,1.7,5.61,4.19,.24,.8,.3,1.65,.18,2.47v7.88h12.31c2.18-.02,4.15,1.28,4.98,3.3,1.12,2.75-.19,5.89-2.94,7.01-.65,.26-1.34,.4-2.04,.4h-12.31v18.97c0,9.25,5.16,13.98,12.31,13.98,2.99,0,5.41,2.42,5.42,5.41,0,2.99-2.42,5.41-5.4,5.41,0,0-.01,0-.02,0-13.58,0-23.89-9.56-23.89-24.8v-18.96h-3.79c-2.96-.01-5.35-2.4-5.38-5.36h0Zm-47.38,63.34v-20.6c4.82,4.23,11.02,6.55,17.44,6.51,15.13,0,26.58-12.29,26.58-27.85s-11.45-27.85-26.58-27.85c-6.44-.06-12.66,2.3-17.44,6.61v-.73c-.46-3.19-3.41-5.41-6.61-4.95-1.11,.16-2.15,.63-2.99,1.36-1.06,.92-1.76,2.19-1.96,3.59v63.91c.46,3.19,3.41,5.41,6.6,4.95,1.11-.16,2.15-.63,3-1.37,1.06-.92,1.76-2.19,1.96-3.59h0Zm16.18-59.08c9.03,0,16.18,7.36,16.18,17.14s-7.15,17.14-16.18,17.14-16.18-7.36-16.18-17.14v-.74c.32-9.34,7.15-16.39,16.18-16.39Zm-87.89,17.05c.04-5.3,1.58-10.48,4.45-14.94,2.86-4.45,6.93-8,11.73-10.23,9.79-4.55,21.33-3.04,29.61,3.89,1.27,1.1,2.03,2.68,2.09,4.37,0,1.57-.6,3.08-1.69,4.21l-16.08,19.2c-.95,1.23-2.43,1.93-3.98,1.89-2.18,.12-4.2-1.15-5.03-3.17-.27-.65-.4-1.36-.39-2.06-.07-1.28,.38-2.53,1.25-3.46l12.66-14.88c-2.07-1.27-4.47-1.93-6.9-1.89-8.99,0-16.1,7.55-16.1,17.09s7.01,17.09,16.1,17.09c4.19,.04,8.21-1.67,11.08-4.73l.64-.53c1.35-1.13,2.48-2.08,4.38-2.08,1.5-.07,2.96,.49,4.02,1.55,1.07,1.05,1.66,2.5,1.63,4-.11,1.41-.7,2.75-1.69,3.77-5.08,5.72-12.42,8.92-20.06,8.73-7.39,.12-14.51-2.78-19.73-8.02-5.23-5.24-8.11-12.38-7.98-19.78Zm-22.42-16.1h-23.22c-1.42,0-2.78-.58-3.78-1.58-2.09-2.1-2.1-5.49-.03-7.6,1.01-1.01,2.38-1.57,3.8-1.56h34.78c2.18-.03,4.15,1.29,4.97,3.31,.27,.65,.4,1.35,.39,2.06-.05,1.43-.65,2.79-1.68,3.79l-28.27,33.83h24.59c2.18-.03,4.15,1.29,4.97,3.31,.82,2.01,.35,4.32-1.19,5.85-1,1-2.36,1.57-3.78,1.58h-36c-1.43-.02-2.8-.6-3.81-1.63-1.01-1.03-1.56-2.41-1.55-3.85,.04-1.42,.6-2.77,1.58-3.8l28.23-33.72h0Zm190.15,.69c-3.05,4.57-4.68,9.94-4.68,15.44-.27,15.07,11.73,27.51,26.8,27.78,.33,0,.65,0,.98,0,15.35,0,27.79-12.44,27.79-27.78,0-15.35-12.44-27.79-27.78-27.79-9.28,0-17.95,4.63-23.11,12.35Zm23.1-1.66c9.22,0,16.15,7.66,16.15,17.1s-6.92,17.1-16.15,17.1-16.15-7.66-16.15-17.09,6.93-17.1,16.15-17.1Z"/></svg>